<?xml version="1.0" encoding="UTF-8" standalone="no" ?>
<!DOCTYPE svg PUBLIC "-//W3C//DTD SVG 1.1//EN" "http://www.w3.org/Graphics/SVG/1.1/DTD/svg11.dtd">
<svg xmlns="http://www.w3.org/2000/svg" xmlns:xlink="http://www.w3.org/1999/xlink" version="1.1" width="80" height="80" viewBox="0 0 400 400" xml:space="preserve">
<desc>Created with Fabric.js 3.6.2</desc>
<defs>
</defs>
<g transform="matrix(3.13 0 0 3.13 200 175)" id="Computer"  >
<path style="stroke: none; stroke-width: 1; stroke-dasharray: none; stroke-linecap: butt; stroke-dashoffset: 0; stroke-linejoin: miter; stroke-miterlimit: 4; fill: #111418; fill-rule: nonzero; opacity: 1;"  transform=" translate(-32, -24)" d="M 54.5 45 H 9.5 A 6.51 6.51 0 0 1 3 38.5 V 9.5 A 6.51 6.51 0 0 1 9.5 3 h 45 A 6.51 6.51 0 0 1 61 9.5 v 29 A 6.51 6.51 0 0 1 54.5 45 Z M 9.5 5 A 4.51 4.51 0 0 0 5 9.5 v 29 A 4.51 4.51 0 0 0 9.5 43 h 45 A 4.51 4.51 0 0 0 59 38.5 V 9.5 A 4.51 4.51 0 0 0 54.5 5 Z" stroke-linecap="round" />
</g>
<g transform="matrix(3.13 0 0 3.13 199.92 175.08)" id="Computer"  >
<path style="stroke: none; stroke-width: 1; stroke-dasharray: none; stroke-linecap: butt; stroke-dashoffset: 0; stroke-linejoin: miter; stroke-miterlimit: 4; fill: #111418; fill-rule: nonzero; opacity: 1;"  transform=" translate(-31.98, -24.02)" d="M 46.45 41 H 17.55 a 9 9 0 0 1 -9 -9 V 16 a 9 9 0 0 1 9 -8.95 h 28.9 a 9 9 0 0 1 8.95 9 v 16.1 A 9 9 0 0 1 46.45 41 Z M 17.55 9 a 7 7 0 0 0 -7 7 v 16.1 a 7 7 0 0 0 7 7 h 28.9 a 7 7 0 0 0 6.95 -7 V 16 A 7 7 0 0 0 46.45 9 Z" stroke-linecap="round" />
</g>
<g transform="matrix(3.13 0 0 3.13 200 287.5)" id="Computer"  >
<path style="stroke: none; stroke-width: 1; stroke-dasharray: none; stroke-linecap: butt; stroke-dashoffset: 0; stroke-linejoin: miter; stroke-miterlimit: 4; fill: #111418; fill-rule: nonzero; opacity: 1;"  transform=" translate(-32, -60)" d="M 52 61 H 12 a 1 1 0 0 1 0 -2 H 52 a 1 1 0 0 1 0 2 Z" stroke-linecap="round" />
</g>
<g transform="matrix(3.13 0 0 3.13 146.52 274.89)" id="Computer"  >
<path style="stroke: none; stroke-width: 1; stroke-dasharray: none; stroke-linecap: butt; stroke-dashoffset: 0; stroke-linejoin: miter; stroke-miterlimit: 4; fill: #111418; fill-rule: nonzero; opacity: 1;"  transform=" translate(-14.89, -55.96)" d="M 12 61 a 1 1 0 0 1 -0.58 -0.19 a 1 1 0 0 1 -0.23 -1.39 l 5.72 -8 a 1 1 0 1 1 1.62 1.16 l -5.72 8 A 1 1 0 0 1 12 61 Z" stroke-linecap="round" />
</g>
<g transform="matrix(3.13 0 0 3.13 253.65 275.11)" id="Computer"  >
<path style="stroke: none; stroke-width: 1; stroke-dasharray: none; stroke-linecap: butt; stroke-dashoffset: 0; stroke-linejoin: miter; stroke-miterlimit: 4; fill: #111418; fill-rule: nonzero; opacity: 1;"  transform=" translate(-49.17, -56.04)" d="M 52 61 a 1 1 0 0 1 -0.81 -0.42 l -5.71 -8 a 1 1 0 0 1 1.62 -1.16 l 5.71 8 a 1 1 0 0 1 -0.23 1.39 A 1 1 0 0 1 52 61 Z" stroke-linecap="round" />
</g>
<g transform="matrix(3.13 0 0 3.13 200 225)" id="Computer"  >
<path style="stroke: none; stroke-width: 1; stroke-dasharray: none; stroke-linecap: butt; stroke-dashoffset: 0; stroke-linejoin: miter; stroke-miterlimit: 4; fill: #111418; fill-rule: nonzero; opacity: 1;"  transform=" translate(-32, -40)" d="M 36 41 H 28 a 1 1 0 0 1 0 -2 h 8 a 1 1 0 0 1 0 2 Z" stroke-linecap="round" />
</g>
<g transform="matrix(3.13 0 0 3.13 200 256.25)" id="Computer"  >
<path style="stroke: none; stroke-width: 1; stroke-dasharray: none; stroke-linecap: butt; stroke-dashoffset: 0; stroke-linejoin: miter; stroke-miterlimit: 4; fill: #111418; fill-rule: nonzero; opacity: 1;"  transform=" translate(-32, -50)" d="M 40 57 H 24 a 1 1 0 0 1 -0.88 -0.53 a 1 1 0 0 1 0.05 -1 L 27 49.7 V 44 a 1 1 0 0 1 2 0 v 6 a 1 1 0 0 1 -0.17 0.55 l -3 4.45 H 38.13 l -3 -4.45 A 1 1 0 0 1 35 50 V 44 a 1 1 0 0 1 2 0 v 5.7 l 3.83 5.75 a 1 1 0 0 1 0.05 1 A 1 1 0 0 1 40 57 Z" stroke-linecap="round" />
</g>
<g transform="matrix(3.13 0 0 3.13 230.59 262.5)" id="Computer"  >
<path style="stroke: none; stroke-width: 1; stroke-dasharray: none; stroke-linecap: butt; stroke-dashoffset: 0; stroke-linejoin: miter; stroke-miterlimit: 4; fill: #111418; fill-rule: nonzero; opacity: 1;"  transform=" translate(-41.79, -52)" d="M 46.29 53 h -9 a 1 1 0 0 1 0 -2 h 9 a 1 1 0 0 1 0 2 Z" stroke-linecap="round" />
</g>
<g transform="matrix(3.13 0 0 3.13 169.28 262.5)" id="Computer"  >
<path style="stroke: none; stroke-width: 1; stroke-dasharray: none; stroke-linecap: butt; stroke-dashoffset: 0; stroke-linejoin: miter; stroke-miterlimit: 4; fill: #111418; fill-rule: nonzero; opacity: 1;"  transform=" translate(-22.17, -52)" d="M 26.67 53 h -9 a 1 1 0 0 1 0 -2 h 9 a 1 1 0 0 1 0 2 Z" stroke-linecap="round" />
</g>
</svg>