<?xml version="1.0" encoding="UTF-8" standalone="no" ?>
<!DOCTYPE svg PUBLIC "-//W3C//DTD SVG 1.1//EN" "http://www.w3.org/Graphics/SVG/1.1/DTD/svg11.dtd">
<svg xmlns="http://www.w3.org/2000/svg" xmlns:xlink="http://www.w3.org/1999/xlink" version="1.1" width="80" height="80" viewBox="0 0 400 400" xml:space="preserve">
<desc>Created with Fabric.js 3.6.2</desc>
<defs>
</defs>
<g transform="matrix(10 0 0 10 200 200)"  >
<path style="stroke: none; stroke-width: 1; stroke-dasharray: none; stroke-linecap: butt; stroke-dashoffset: 0; stroke-linejoin: miter; stroke-miterlimit: 4; fill: rgb(255,255,255); fill-opacity: 0.5; fill-rule: nonzero; opacity: 1;"  transform=" translate(-12, -12)" d="M 21.66 10.25 l -9 -8 a 1 1 0 0 0 -1.32 0 l -9 8 a 1 1 0 0 0 -0.27 1.11 A 1 1 0 0 0 3 12 H 4 v 9 a 1 1 0 0 0 1 1 H 19 a 1 1 0 0 0 1 -1 V 12 h 1 a 1 1 0 0 0 0.93 -0.64 A 1 1 0 0 0 21.66 10.25 Z M 13 20 H 11 V 17 a 1 1 0 0 1 2 0 Z m 5 0 H 15 V 17 a 3 3 0 0 0 -6 0 v 3 H 6 V 12 H 18 Z M 5.63 10 L 12 4.34 L 18.37 10 Z" stroke-linecap="round" />
</g>
</svg>